{
    "asset" : {
        "generator" : "Khronos glTF Blender I/O v1.2.75",
        "version" : "2.0"
    },
    "extensionsUsed" : [
        "KHR_materials_unlit"
    ],
    "scene" : 0,
    "scenes" : [
        {
            "name" : "Scene",
            "nodes" : [
                0,
                1,
                2,
                3,
                4,
                5,
                6
            ]
        }
    ],
    "nodes" : [
        {
            "mesh" : 0,
            "name" : "Cylinder.005",
            "rotation" : [
                -0.012461262755095959,
                0.7040383815765381,
                -0.709945023059845,
                -0.012357586994767189
            ],
            "scale" : [
                0.48808491230010986,
                0.20800000429153442,
                0.48707348108291626
            ],
            "translation" : [
                -1.7300498485565186,
                -0.09337589144706726,
                -1.1056005954742432
            ]
        },
        {
            "mesh" : 1,
            "name" : "Cylinder.002",
            "rotation" : [
                0,
                0.7041468024253845,
                -0.7100543975830078,
                -3.077923693695084e-08
            ],
            "scale" : [
                0.48808491230010986,
                0.20800000429153442,
                0.48707348108291626
            ],
            "translation" : [
                2.1042816638946533,
                -0.09337589144706726,
                -1.1056005954742432
            ]
        },
        {
            "mesh" : 2,
            "name" : "Cylinder.001",
            "rotation" : [
                0.7100543975830078,
                0,
                0,
                0.7041468024253845
            ],
            "scale" : [
                0.48808491230010986,
                0.2079194337129593,
                0.48707348108291626
            ],
            "translation" : [
                2.1042816638946533,
                -0.09337589144706726,
                1.0181195735931396
            ]
        },
        {
            "mesh" : 3,
            "name" : "Cylinder",
            "rotation" : [
                0.7134914398193359,
                0.029098348692059517,
                0.02118723653256893,
                0.6997387409210205
            ],
            "scale" : [
                0.48808491230010986,
                0.2079194337129593,
                0.48707348108291626
            ],
            "translation" : [
                -1.713238000869751,
                -0.09337589144706726,
                1.0181195735931396
            ]
        },
        {
            "mesh" : 4,
            "name" : "Cube",
            "translation" : [
                0,
                0.26170337200164795,
                -0.2556155323982239
            ]
        },
        {
            "name" : "Lamp",
            "rotation" : [
                0.16907575726509094,
                0.7558803558349609,
                -0.27217137813568115,
                0.570947527885437
            ],
            "translation" : [
                3.9598822593688965,
                5.20237922668457,
                -1.0054539442062378
            ]
        },
        {
            "name" : "Camera",
            "rotation" : [
                0.6055952310562134,
                -0.3829687237739563,
                0.20048710703849792,
                0.6681274771690369
            ],
            "translation" : [
                -11.301416397094727,
                2.8560450077056885,
                9.892376899719238
            ]
        }
    ],
    "materials" : [
        {
            "doubleSided" : true,
            "extensions" : {
                "KHR_materials_unlit" : {}
            },
            "name" : "Material.010",
            "pbrMetallicRoughness" : {
                "baseColorFactor" : [
                    0.36723822355270386,
                    0.36723822355270386,
                    0.36723822355270386,
                    1
                ]
            }
        },
        {
            "doubleSided" : true,
            "extensions" : {
                "KHR_materials_unlit" : {}
            },
            "name" : "Material.011",
            "pbrMetallicRoughness" : {
                "baseColorFactor" : [
                    0,
                    0,
                    0,
                    1
                ]
            }
        },
        {
            "doubleSided" : true,
            "extensions" : {
                "KHR_materials_unlit" : {}
            },
            "name" : "Material.012",
            "pbrMetallicRoughness" : {
                "baseColorFactor" : [
                    0.7747946381568909,
                    0.7922056317329407,
                    0.8000000715255737,
                    1
                ]
            }
        },
        {
            "doubleSided" : true,
            "extensions" : {
                "KHR_materials_unlit" : {}
            },
            "name" : "Material.004",
            "pbrMetallicRoughness" : {
                "baseColorFactor" : [
                    1,
                    0.31148406863212585,
                    0.2515142858028412,
                    1
                ]
            }
        },
        {
            "doubleSided" : true,
            "name" : "Material.005",
            "pbrMetallicRoughness" : {}
        },
        {
            "doubleSided" : true,
            "extensions" : {
                "KHR_materials_unlit" : {}
            },
            "name" : "Material.006",
            "pbrMetallicRoughness" : {
                "baseColorFactor" : [
                    0.1901777684688568,
                    0.1901777684688568,
                    0.1901777684688568,
                    1
                ]
            }
        },
        {
            "doubleSided" : true,
            "extensions" : {
                "KHR_materials_unlit" : {}
            },
            "name" : "Material.007",
            "pbrMetallicRoughness" : {
                "baseColorFactor" : [
                    0,
                    0,
                    0,
                    1
                ]
            }
        },
        {
            "doubleSided" : true,
            "emissiveFactor" : [
                1,
                0,
                0.008381458930671215
            ],
            "name" : "Material.008",
            "pbrMetallicRoughness" : {}
        },
        {
            "doubleSided" : true,
            "extensions" : {
                "KHR_materials_unlit" : {}
            },
            "name" : "Material.009",
            "pbrMetallicRoughness" : {
                "baseColorFactor" : [
                    0.8000000715255737,
                    0.11723196506500244,
                    0.017830148339271545,
                    1
                ]
            }
        },
        {
            "doubleSided" : true,
            "emissiveFactor" : [
                0.7056396007537842,
                0.8900054693222046,
                0.1867467314004898
            ],
            "name" : "Material.017",
            "pbrMetallicRoughness" : {}
        }
    ],
    "meshes" : [
        {
            "name" : "Cylinder.007",
            "primitives" : [
                {
                    "attributes" : {
                        "POSITION" : 0
                    },
                    "indices" : 1,
                    "material" : 0
                },
                {
                    "attributes" : {
                        "POSITION" : 2
                    },
                    "indices" : 3,
                    "material" : 1
                },
                {
                    "attributes" : {
                        "POSITION" : 4
                    },
                    "indices" : 5,
                    "material" : 2
                }
            ]
        },
        {
            "name" : "Cylinder.006",
            "primitives" : [
                {
                    "attributes" : {
                        "POSITION" : 6
                    },
                    "indices" : 1,
                    "material" : 0
                },
                {
                    "attributes" : {
                        "POSITION" : 7
                    },
                    "indices" : 3,
                    "material" : 1
                },
                {
                    "attributes" : {
                        "POSITION" : 8
                    },
                    "indices" : 5,
                    "material" : 2
                }
            ]
        },
        {
            "name" : "Cylinder.005",
            "primitives" : [
                {
                    "attributes" : {
                        "POSITION" : 9
                    },
                    "indices" : 1,
                    "material" : 0
                },
                {
                    "attributes" : {
                        "POSITION" : 10
                    },
                    "indices" : 3,
                    "material" : 1
                },
                {
                    "attributes" : {
                        "POSITION" : 11
                    },
                    "indices" : 5,
                    "material" : 2
                }
            ]
        },
        {
            "name" : "Cylinder",
            "primitives" : [
                {
                    "attributes" : {
                        "POSITION" : 12
                    },
                    "indices" : 1,
                    "material" : 0
                },
                {
                    "attributes" : {
                        "POSITION" : 13
                    },
                    "indices" : 3,
                    "material" : 1
                },
                {
                    "attributes" : {
                        "POSITION" : 14
                    },
                    "indices" : 5,
                    "material" : 2
                }
            ]
        },
        {
            "name" : "Cube.001",
            "primitives" : [
                {
                    "attributes" : {
                        "POSITION" : 15
                    },
                    "indices" : 16,
                    "material" : 3
                },
                {
                    "attributes" : {
                        "POSITION" : 17
                    },
                    "indices" : 18,
                    "material" : 4
                },
                {
                    "attributes" : {
                        "POSITION" : 19
                    },
                    "indices" : 20,
                    "material" : 5
                },
                {
                    "attributes" : {
                        "POSITION" : 21
                    },
                    "indices" : 22,
                    "material" : 6
                },
                {
                    "attributes" : {
                        "POSITION" : 23
                    },
                    "indices" : 24,
                    "material" : 7
                },
                {
                    "attributes" : {
                        "POSITION" : 25
                    },
                    "indices" : 26,
                    "material" : 8
                },
                {
                    "attributes" : {
                        "POSITION" : 27
                    },
                    "indices" : 28,
                    "material" : 9
                }
            ]
        }
    ],
    "accessors" : [
        {
            "bufferView" : 0,
            "componentType" : 5126,
            "count" : 128,
            "max" : [
                0.6797756552696228,
                0.9070945978164673,
                0.6794494390487671
            ],
            "min" : [
                -0.6797756552696228,
                0.2767183184623718,
                -0.6801018714904785
            ],
            "type" : "VEC3"
        },
        {
            "bufferView" : 1,
            "componentType" : 5123,
            "count" : 474,
            "type" : "SCALAR"
        },
        {
            "bufferView" : 2,
            "componentType" : 5126,
            "count" : 224,
            "max" : [
                1,
                1.131847858428955,
                1
            ],
            "min" : [
                -1,
                -1,
                -1
            ],
            "type" : "VEC3"
        },
        {
            "bufferView" : 3,
            "componentType" : 5123,
            "count" : 1242,
            "type" : "SCALAR"
        },
        {
            "bufferView" : 4,
            "componentType" : 5126,
            "count" : 96,
            "max" : [
                0.4704720377922058,
                0.9070945978164673,
                0.4698004722595215
            ],
            "min" : [
                -0.4704720377922058,
                0.8261234760284424,
                -0.4711436331272125
            ],
            "type" : "VEC3"
        },
        {
            "bufferView" : 5,
            "componentType" : 5123,
            "count" : 384,
            "type" : "SCALAR"
        },
        {
            "bufferView" : 6,
            "componentType" : 5126,
            "count" : 128,
            "max" : [
                0.6797756552696228,
                0.9070945978164673,
                0.6794494390487671
            ],
            "min" : [
                -0.6797756552696228,
                0.2767183184623718,
                -0.6801018714904785
            ],
            "type" : "VEC3"
        },
        {
            "bufferView" : 7,
            "componentType" : 5126,
            "count" : 224,
            "max" : [
                1,
                1.131847858428955,
                1
            ],
            "min" : [
                -1,
                -1,
                -1
            ],
            "type" : "VEC3"
        },
        {
            "bufferView" : 8,
            "componentType" : 5126,
            "count" : 96,
            "max" : [
                0.4704720377922058,
                0.9070945978164673,
                0.4698004722595215
            ],
            "min" : [
                -0.4704720377922058,
                0.8261234760284424,
                -0.4711436331272125
            ],
            "type" : "VEC3"
        },
        {
            "bufferView" : 9,
            "componentType" : 5126,
            "count" : 128,
            "max" : [
                0.6797756552696228,
                0.9070945978164673,
                0.6794494390487671
            ],
            "min" : [
                -0.6797756552696228,
                0.2767183184623718,
                -0.6801018714904785
            ],
            "type" : "VEC3"
        },
        {
            "bufferView" : 10,
            "componentType" : 5126,
            "count" : 224,
            "max" : [
                1,
                1.131847858428955,
                1
            ],
            "min" : [
                -1,
                -1,
                -1
            ],
            "type" : "VEC3"
        },
        {
            "bufferView" : 11,
            "componentType" : 5126,
            "count" : 96,
            "max" : [
                0.4704720377922058,
                0.9070945978164673,
                0.4698004722595215
            ],
            "min" : [
                -0.4704720377922058,
                0.8261234760284424,
                -0.4711436331272125
            ],
            "type" : "VEC3"
        },
        {
            "bufferView" : 12,
            "componentType" : 5126,
            "count" : 128,
            "max" : [
                0.6797756552696228,
                0.9070945978164673,
                0.6794494390487671
            ],
            "min" : [
                -0.6797756552696228,
                0.2767183184623718,
                -0.6801018714904785
            ],
            "type" : "VEC3"
        },
        {
            "bufferView" : 13,
            "componentType" : 5126,
            "count" : 224,
            "max" : [
                1,
                1.131847858428955,
                1
            ],
            "min" : [
                -1,
                -1,
                -1
            ],
            "type" : "VEC3"
        },
        {
            "bufferView" : 14,
            "componentType" : 5126,
            "count" : 96,
            "max" : [
                0.4704720377922058,
                0.9070945978164673,
                0.4698004722595215
            ],
            "min" : [
                -0.4704720377922058,
                0.8261234760284424,
                -0.4711436331272125
            ],
            "type" : "VEC3"
        },
        {
            "bufferView" : 15,
            "componentType" : 5126,
            "count" : 1579,
            "max" : [
                3.05307936668396,
                2.5975029468536377,
                1.8029717206954956
            ],
            "min" : [
                -2.9211220741271973,
                -0.3914102613925934,
                -1.3785068988800049
            ],
            "type" : "VEC3"
        },
        {
            "bufferView" : 16,
            "componentType" : 5123,
            "count" : 3519,
            "type" : "SCALAR"
        },
        {
            "bufferView" : 17,
            "componentType" : 5126,
            "count" : 12,
            "max" : [
                -1.0511518716812134,
                1.4154818058013916,
                1.7752646207809448
            ],
            "min" : [
                -1.102014422416687,
                1.0788590908050537,
                -1.350799798965454
            ],
            "type" : "VEC3"
        },
        {
            "bufferView" : 18,
            "componentType" : 5123,
            "count" : 24,
            "type" : "SCALAR"
        },
        {
            "bufferView" : 19,
            "componentType" : 5126,
            "count" : 839,
            "max" : [
                3.05307936668396,
                0.8031909465789795,
                1.509152889251709
            ],
            "min" : [
                -2.921658515930176,
                -0.3914102613925934,
                -1.0747756958007812
            ],
            "type" : "VEC3"
        },
        {
            "bufferView" : 20,
            "componentType" : 5123,
            "count" : 1866,
            "type" : "SCALAR"
        },
        {
            "bufferView" : 21,
            "componentType" : 5126,
            "count" : 24,
            "max" : [
                -2.781106472015381,
                0.7004340291023254,
                0.7909871339797974
            ],
            "min" : [
                -2.887791156768799,
                -0.0725998803973198,
                -0.38227730989456177
            ],
            "type" : "VEC3"
        },
        {
            "bufferView" : 22,
            "componentType" : 5123,
            "count" : 36,
            "type" : "SCALAR"
        },
        {
            "bufferView" : 23,
            "componentType" : 5126,
            "count" : 24,
            "max" : [
                3.0223212242126465,
                0.7595351338386536,
                1.4376282691955566
            ],
            "min" : [
                -2.7211806774139404,
                -0.31389033794403076,
                -1.012919545173645
            ],
            "type" : "VEC3"
        },
        {
            "bufferView" : 24,
            "componentType" : 5123,
            "count" : 36,
            "type" : "SCALAR"
        },
        {
            "bufferView" : 25,
            "componentType" : 5126,
            "count" : 8,
            "max" : [
                2.9261932373046875,
                0.8879632353782654,
                1.347886562347412
            ],
            "min" : [
                2.9261932373046875,
                0.7803290486335754,
                -0.9234217405319214
            ],
            "type" : "VEC3"
        },
        {
            "bufferView" : 26,
            "componentType" : 5123,
            "count" : 12,
            "type" : "SCALAR"
        },
        {
            "bufferView" : 27,
            "componentType" : 5126,
            "count" : 64,
            "max" : [
                -2.871891498565674,
                0.7718335390090942,
                1.3234773874282837
            ],
            "min" : [
                -2.8780908584594727,
                0.41816794872283936,
                -0.8899257779121399
            ],
            "type" : "VEC3"
        },
        {
            "bufferView" : 28,
            "componentType" : 5123,
            "count" : 180,
            "type" : "SCALAR"
        }
    ],
    "bufferViews" : [
        {
            "buffer" : 0,
            "byteLength" : 1536,
            "byteOffset" : 0
        },
        {
            "buffer" : 0,
            "byteLength" : 948,
            "byteOffset" : 1536
        },
        {
            "buffer" : 0,
            "byteLength" : 2688,
            "byteOffset" : 2484
        },
        {
            "buffer" : 0,
            "byteLength" : 2484,
            "byteOffset" : 5172
        },
        {
            "buffer" : 0,
            "byteLength" : 1152,
            "byteOffset" : 7656
        },
        {
            "buffer" : 0,
            "byteLength" : 768,
            "byteOffset" : 8808
        },
        {
            "buffer" : 0,
            "byteLength" : 1536,
            "byteOffset" : 9576
        },
        {
            "buffer" : 0,
            "byteLength" : 2688,
            "byteOffset" : 11112
        },
        {
            "buffer" : 0,
            "byteLength" : 1152,
            "byteOffset" : 13800
        },
        {
            "buffer" : 0,
            "byteLength" : 1536,
            "byteOffset" : 14952
        },
        {
            "buffer" : 0,
            "byteLength" : 2688,
            "byteOffset" : 16488
        },
        {
            "buffer" : 0,
            "byteLength" : 1152,
            "byteOffset" : 19176
        },
        {
            "buffer" : 0,
            "byteLength" : 1536,
            "byteOffset" : 20328
        },
        {
            "buffer" : 0,
            "byteLength" : 2688,
            "byteOffset" : 21864
        },
        {
            "buffer" : 0,
            "byteLength" : 1152,
            "byteOffset" : 24552
        },
        {
            "buffer" : 0,
            "byteLength" : 18948,
            "byteOffset" : 25704
        },
        {
            "buffer" : 0,
            "byteLength" : 7038,
            "byteOffset" : 44652
        },
        {
            "buffer" : 0,
            "byteLength" : 144,
            "byteOffset" : 51692
        },
        {
            "buffer" : 0,
            "byteLength" : 48,
            "byteOffset" : 51836
        },
        {
            "buffer" : 0,
            "byteLength" : 10068,
            "byteOffset" : 51884
        },
        {
            "buffer" : 0,
            "byteLength" : 3732,
            "byteOffset" : 61952
        },
        {
            "buffer" : 0,
            "byteLength" : 288,
            "byteOffset" : 65684
        },
        {
            "buffer" : 0,
            "byteLength" : 72,
            "byteOffset" : 65972
        },
        {
            "buffer" : 0,
            "byteLength" : 288,
            "byteOffset" : 66044
        },
        {
            "buffer" : 0,
            "byteLength" : 72,
            "byteOffset" : 66332
        },
        {
            "buffer" : 0,
            "byteLength" : 96,
            "byteOffset" : 66404
        },
        {
            "buffer" : 0,
            "byteLength" : 24,
            "byteOffset" : 66500
        },
        {
            "buffer" : 0,
            "byteLength" : 768,
            "byteOffset" : 66524
        },
        {
            "buffer" : 0,
            "byteLength" : 360,
            "byteOffset" : 67292
        }
    ],
    "buffers" : [
        {
            "byteLength" : 67652,
            "uri" : "data:application/octet-stream;base64,"
        }
    ]
}
